<svg width="110" height="150" viewBox="0 0 110 150" fill="none" xmlns="http://www.w3.org/2000/svg">
<g filter="url(#filter0_dd_1_4433)">
<rect x="30" y="50" width="50" height="50" rx="10" fill="url(#paint0_linear_1_4433)" shape-rendering="crispEdges"/>
<rect x="30.5" y="50.5" width="49" height="49" rx="9.5" stroke="url(#paint1_linear_1_4433)" stroke-opacity="0.2" shape-rendering="crispEdges"/>
<path fill-rule="evenodd" clip-rule="evenodd" d="M51.0295 80.6471C50.4986 84.2459 47.5736 86.9884 44.0635 86.9884C40.1634 86.9884 37 83.621 37 79.4552C37 75.2893 40.1526 71.9219 44.0635 71.9219C45.6127 71.9219 47.0536 72.4542 48.2128 73.3568L49.7728 71.5979L48.2561 68.4851H46.8802C46.3494 68.4851 45.9269 68.0338 45.9269 67.4667C45.9269 66.8997 46.3602 66.4368 46.8802 66.4368H51.517C52.037 66.4368 52.4704 66.8997 52.4704 67.4667C52.4704 68.0338 52.0479 68.4851 51.517 68.4851H50.3253L51.7445 71.3202L61.3756 69.8621L59.6422 65.1408C59.6097 65.0714 59.588 65.0482 59.4905 65.0482H56.6196C56.0888 65.0482 55.6554 64.5853 55.6554 64.0299C55.6554 63.4629 56.0888 63 56.6196 63H59.8697C60.5522 63 60.9422 63.2546 61.1589 63.8563L64.2248 72.1533C64.7773 72.0029 65.3623 71.9219 65.9582 71.9219C69.8474 71.9219 73 75.2893 73 79.4552C73 83.621 69.8474 87 65.9582 87C62.0473 87 58.8838 83.621 58.8838 79.4552C58.8838 76.6432 60.3355 74.1784 62.4806 72.8939L62.0689 71.7715L56.7496 77.8467C57.1071 78.298 57.3238 78.8766 57.3238 79.5014C57.3238 80.9132 56.2513 82.0588 54.9188 82.0588C53.9654 82.0588 53.142 81.4802 52.752 80.6471H51.0295ZM49.5345 74.6876C50.3903 75.81 50.9537 77.2102 51.0945 78.7377H52.622C52.6979 78.4947 52.7954 78.2633 52.9362 78.055L50.672 73.4262L49.5345 74.6876ZM38.95 79.4552C38.95 82.4986 41.2251 84.9286 44.0635 84.9286C46.5119 84.9286 48.5594 83.1003 49.0578 80.6471H45.1252C44.8544 80.9248 44.4752 81.0984 44.0635 81.0984C43.1968 81.0984 42.5143 80.3693 42.5251 79.4552C42.536 78.5178 43.2076 77.812 44.0635 77.812C44.1285 77.812 44.1827 77.812 44.2368 77.8235L46.8586 74.8727C46.0569 74.3173 45.1035 73.9933 44.0635 73.9933C41.2359 73.9933 38.95 76.4349 38.95 79.4552ZM60.8339 79.4552C60.8339 82.4986 63.1198 84.9286 65.9582 84.9286C68.7749 84.9286 71.0716 82.487 71.0716 79.4552C71.0716 76.4465 68.7749 73.9933 65.9582 73.9933C65.6115 73.9933 65.2757 74.028 64.9507 74.0974L66.3374 77.8582C67.009 78.0434 67.4857 78.6798 67.4857 79.4552C67.4857 80.3693 66.814 81.0984 65.9582 81.0984C65.0807 81.0984 64.3981 80.3693 64.409 79.4552C64.409 79.1659 64.4848 78.8997 64.5931 78.6683L63.1956 74.8496C61.7764 75.8216 60.8339 77.5227 60.8339 79.4552ZM48.1803 76.2035L45.8944 78.7377H49.1445C49.0253 77.7888 48.6786 76.9209 48.1803 76.2035ZM54.1387 79.5246C54.1387 79.9528 54.4854 80.323 54.9296 80.323C55.3629 80.323 55.6988 79.9643 55.6988 79.5246C55.6988 79.0501 55.3629 78.6683 54.9296 78.6683C54.4962 78.6683 54.1387 79.0617 54.1387 79.5246ZM56.1548 71.2843L53.8723 74.8712H55.2951V77.4501L57.6962 73.8633H55.9473L56.1548 71.2843Z" fill="white" fill-opacity="0.6"/>
</g>
<defs>
<filter id="filter0_dd_1_4433" x="0" y="0" width="110" height="150" filterUnits="userSpaceOnUse" color-interpolation-filters="sRGB">
<feFlood flood-opacity="0" result="BackgroundImageFix"/>
<feColorMatrix in="SourceAlpha" type="matrix" values="0 0 0 0 0 0 0 0 0 0 0 0 0 0 0 0 0 0 127 0" result="hardAlpha"/>
<feOffset dy="20"/>
<feGaussianBlur stdDeviation="15"/>
<feComposite in2="hardAlpha" operator="out"/>
<feColorMatrix type="matrix" values="0 0 0 0 0.0640972 0 0 0 0 0.0794837 0 0 0 0 0.108333 0 0 0 1 0"/>
<feBlend mode="normal" in2="BackgroundImageFix" result="effect1_dropShadow_1_4433"/>
<feColorMatrix in="SourceAlpha" type="matrix" values="0 0 0 0 0 0 0 0 0 0 0 0 0 0 0 0 0 0 127 0" result="hardAlpha"/>
<feOffset dy="-20"/>
<feGaussianBlur stdDeviation="15"/>
<feComposite in2="hardAlpha" operator="out"/>
<feColorMatrix type="matrix" values="0 0 0 0 0.167014 0 0 0 0 0.203125 0 0 0 0 0.270833 0 0 0 0.5 0"/>
<feBlend mode="normal" in2="effect1_dropShadow_1_4433" result="effect2_dropShadow_1_4433"/>
<feBlend mode="normal" in="SourceGraphic" in2="effect2_dropShadow_1_4433" result="shape"/>
</filter>
<linearGradient id="paint0_linear_1_4433" x1="48.0303" y1="63.278" x2="53.3926" y2="93.6412" gradientUnits="userSpaceOnUse">
<stop stop-color="#353F54"/>
<stop offset="1" stop-color="#222834"/>
</linearGradient>
<linearGradient id="paint1_linear_1_4433" x1="35.6061" y1="51.8672" x2="64.8664" y2="80.5229" gradientUnits="userSpaceOnUse">
<stop stop-color="white"/>
<stop offset="0.844522"/>
<stop offset="1"/>
</linearGradient>
</defs>
</svg>
