<svg width="50" height="50" viewBox="0 0 50 50" fill="none" xmlns="http://www.w3.org/2000/svg">
<g filter="url(#filter0_b_1_4444)">
<rect width="50" height="50" rx="10" fill="url(#paint0_linear_1_4444)" fill-opacity="0.6"/>
<rect x="0.5" y="0.5" width="49" height="49" rx="9.5" stroke="url(#paint1_linear_1_4444)" stroke-opacity="0.2" style="mix-blend-mode:overlay"/>
<path fill-rule="evenodd" clip-rule="evenodd" d="M21.8693 10L27.0139 23.0031L30.151 15.0682L40 39.9805H33.731L33.7387 40H10L21.8693 10ZM32.8055 37.6413H37.0962L33.5512 28.6746C33.1334 28.8472 32.6316 28.9696 32.1126 28.8946C31.3679 28.7868 30.9286 28.5082 30.5947 28.2437C30.5432 28.2029 30.5007 28.1691 30.4653 28.141C30.3134 28.0202 30.2952 28.0057 30.2762 28.0035C30.271 28.0029 30.2658 28.0032 30.2578 28.0026C30.1536 27.994 30.0758 28.0137 29.8496 28.1616C29.8085 28.1884 29.7622 28.2199 29.7108 28.2548C29.5794 28.3443 29.4144 28.4566 29.2173 28.5721L32.8055 37.6413ZM26.9346 28.2095C27.0221 28.3403 27.1229 28.465 27.239 28.5746L30.8261 37.6413H23.2058L26.9346 28.2095ZM28.3964 26.4972C28.5736 26.4017 28.7209 26.3021 28.8795 26.1948L28.8795 26.1948C28.9441 26.1511 29.0104 26.1062 29.0814 26.0599C29.4062 25.8477 29.8116 25.6225 30.3647 25.6678C30.8651 25.7087 31.2272 26.0137 31.4178 26.1743C31.444 26.1963 31.4669 26.2157 31.4865 26.2312C31.6482 26.3592 31.8499 26.5037 32.3008 26.569C32.4274 26.5873 32.5655 26.5771 32.7092 26.5448L30.151 20.074L28.0038 25.505L28.3964 26.4972ZM26.0246 25.5054L21.219 37.6608H12.9048L17.8393 25.1888C17.8706 25.2186 17.9025 25.2485 17.935 25.2781C18.4264 25.7257 19.3391 26.3879 20.3045 25.9652C20.7477 25.7711 21.0915 25.5372 21.3272 25.3768C21.3786 25.3418 21.4249 25.3103 21.466 25.2835C21.6922 25.1357 21.77 25.116 21.8742 25.1245C21.8782 25.1248 21.8815 25.1249 21.8844 25.125C21.8874 25.1251 21.89 25.1251 21.8926 25.1254C21.9116 25.1276 21.9298 25.1421 22.0817 25.2629C22.117 25.2909 22.1596 25.3248 22.2111 25.3656C22.545 25.6301 22.9843 25.9088 23.729 26.0165C24.5769 26.1391 25.392 25.5893 25.8811 25.1876C25.8856 25.1839 25.8901 25.1802 25.8945 25.1765L26.0246 25.5054ZM18.9202 23.345C18.8301 23.2629 18.7453 23.1768 18.6684 23.0932L21.8693 15.0028L25.0739 23.1024C25.0388 23.1331 25.0026 23.1638 24.9654 23.1943C24.5288 23.5529 24.1482 23.7243 23.9172 23.6909C23.4663 23.6257 23.2646 23.4811 23.1029 23.3531C23.0833 23.3376 23.0604 23.3183 23.0342 23.2962C22.8436 23.1357 22.4815 22.8306 21.9811 22.7897C21.428 22.7444 21.0226 22.9696 20.6978 23.1818C20.6268 23.2282 20.5604 23.2731 20.4959 23.3168C20.268 23.4709 20.0634 23.6093 19.76 23.7422C19.6345 23.7971 19.3517 23.738 18.9202 23.345Z" fill="white" fill-opacity="0.6"/>
</g>
<defs>
<filter id="filter0_b_1_4444" x="-30" y="-30" width="110" height="110" filterUnits="userSpaceOnUse" color-interpolation-filters="sRGB">
<feFlood flood-opacity="0" result="BackgroundImageFix"/>
<feGaussianBlur in="BackgroundImageFix" stdDeviation="15"/>
<feComposite in2="SourceAlpha" operator="in" result="effect1_backgroundBlur_1_4444"/>
<feBlend mode="normal" in="SourceGraphic" in2="effect1_backgroundBlur_1_4444" result="shape"/>
</filter>
<linearGradient id="paint0_linear_1_4444" x1="13.9394" y1="12.7514" x2="19.453" y2="37.4094" gradientUnits="userSpaceOnUse">
<stop stop-color="#363E51"/>
<stop offset="1" stop-color="#191E26"/>
</linearGradient>
<linearGradient id="paint1_linear_1_4444" x1="5.30303" y1="1.36986" x2="34.7087" y2="22.4459" gradientUnits="userSpaceOnUse">
<stop stop-color="white"/>
<stop offset="1"/>
</linearGradient>
</defs>
</svg>
