<svg width="24" height="24" viewBox="0 0 24 24" fill="none" xmlns="http://www.w3.org/2000/svg">
<path d="M20.16 4.99998C19.0999 3.93719 17.6948 3.28852 16.1983 3.17115C14.7018 3.05378 13.2127 3.47545 12 4.35998C10.7276 3.41362 9.14396 2.98449 7.56789 3.15902C5.99182 3.33355 4.54041 4.09876 3.50594 5.30057C2.47148 6.50237 1.93079 8.0515 1.99277 9.636C2.05475 11.2205 2.71479 12.7227 3.83997 13.84L10.05 20.06C10.57 20.5718 11.2704 20.8586 12 20.8586C12.7296 20.8586 13.43 20.5718 13.95 20.06L20.16 13.84C21.3275 12.6652 21.9829 11.0763 21.9829 9.41998C21.9829 7.76371 21.3275 6.17472 20.16 4.99998ZM18.75 12.46L12.54 18.67C12.4693 18.7413 12.3852 18.798 12.2925 18.8366C12.1998 18.8753 12.1004 18.8952 12 18.8952C11.8995 18.8952 11.8001 18.8753 11.7074 18.8366C11.6147 18.798 11.5306 18.7413 11.46 18.67L5.24997 12.43C4.46573 11.6283 4.02658 10.5514 4.02658 9.42998C4.02658 8.30852 4.46573 7.23164 5.24997 6.42998C6.04913 5.64097 7.12694 5.19855 8.24997 5.19855C9.373 5.19855 10.4508 5.64097 11.25 6.42998C11.3429 6.52371 11.4535 6.59811 11.5754 6.64887C11.6973 6.69964 11.828 6.72578 11.96 6.72578C12.092 6.72578 12.2227 6.69964 12.3445 6.64887C12.4664 6.59811 12.577 6.52371 12.67 6.42998C13.4691 5.64097 14.5469 5.19855 15.67 5.19855C16.793 5.19855 17.8708 5.64097 18.67 6.42998C19.465 7.22113 19.9186 8.29217 19.9335 9.41367C19.9485 10.5352 19.5236 11.6179 18.75 12.43V12.46Z" fill="white"/>
</svg>
