<svg width="28" height="28" viewBox="0 0 28 28" fill="none" xmlns="http://www.w3.org/2000/svg">
<g clip-path="url(#clip0_1_2489)">
<path d="M5.37465 22.5622C8.04549 22.5622 10.2712 20.5244 10.6751 17.8503H11.9858C12.2826 18.4694 12.9091 18.8993 13.6345 18.8993C14.6484 18.8993 15.4645 18.048 15.4645 16.999C15.4645 16.5347 15.2996 16.1048 15.0276 15.7695L19.0751 11.2553L19.3883 12.0894C17.7561 13.0438 16.6515 14.8752 16.6515 16.9647C16.6515 20.0601 19.0586 22.5708 22.0344 22.5708C24.9938 22.5708 27.3926 20.0601 27.3926 16.9647C27.3926 13.8692 24.9938 11.3671 22.0344 11.3671C21.581 11.3671 21.1359 11.4273 20.7155 11.5391L18.3826 5.37401C18.2178 4.9269 17.921 4.73773 17.4017 4.73773H14.9287C14.5247 4.73773 14.195 5.08167 14.195 5.50299C14.195 5.91571 14.5247 6.25965 14.9287 6.25965H17.1131C17.1873 6.25965 17.2038 6.27684 17.2286 6.32844L18.5475 9.83658L11.2192 10.92L10.1393 8.81337H11.0461C11.45 8.81337 11.7715 8.47803 11.7715 8.05671C11.7715 7.63539 11.4417 7.29146 11.0461 7.29146H7.51791C7.12224 7.29146 6.7925 7.63539 6.7925 8.05671C6.7925 8.47803 7.11399 8.81337 7.51791 8.81337H8.56482L9.71888 11.1263L8.53184 12.4333C7.64981 11.7626 6.55345 11.3671 5.37465 11.3671C2.39881 11.3671 0 13.8692 0 16.9647C0 20.0601 2.40705 22.5622 5.37465 22.5622ZM13.6345 15.0988C13.5438 15.0988 13.4614 15.1074 13.3707 15.116L11.8951 12.2355L17.0967 11.4703L13.7746 15.0988C13.7251 15.0988 13.6839 15.0988 13.6345 15.0988ZM10.7246 16.4316C10.6174 15.2966 10.1888 14.2562 9.53753 13.4221L10.4031 12.4849L12.1259 15.9242C12.0188 16.079 11.9446 16.251 11.8869 16.4316H10.7246ZM5.37465 21.0317C3.2149 21.0317 1.4838 19.226 1.4838 16.9647C1.4838 14.7205 3.22314 12.9062 5.37465 12.9062C6.16601 12.9062 6.89142 13.147 7.50143 13.5597L5.50654 15.7523C5.46533 15.7437 5.42411 15.7437 5.37465 15.7437C4.72343 15.7437 4.21234 16.2682 4.2041 16.9647C4.19585 17.6439 4.71518 18.1856 5.37465 18.1856C5.6879 18.1856 5.97641 18.0566 6.1825 17.8503H9.17482C8.79563 19.6731 7.23764 21.0317 5.37465 21.0317ZM22.0344 21.0317C19.8747 21.0317 18.1353 19.226 18.1353 16.9647C18.1353 15.5287 18.8525 14.2648 19.9324 13.5425L20.9958 16.38C20.9133 16.5519 20.8556 16.7497 20.8556 16.9647C20.8474 17.6439 21.3667 18.1856 22.0344 18.1856C22.6856 18.1856 23.1967 17.6439 23.1967 16.9647C23.1967 16.3886 22.834 15.9156 22.3229 15.7781L21.2678 12.9836C21.5151 12.932 21.7706 12.9062 22.0344 12.9062C24.1777 12.9062 25.9253 14.7291 25.9253 16.9647C25.9253 19.2174 24.1777 21.0317 22.0344 21.0317ZM6.76777 16.4316L8.50711 14.5485C8.88631 15.0816 9.15009 15.7265 9.24077 16.4316H6.76777ZM13.6427 17.6095C13.3047 17.6095 13.0409 17.3344 13.0409 17.0162C13.0409 16.6723 13.313 16.38 13.6427 16.38C13.9724 16.38 14.228 16.6637 14.228 17.0162C14.228 17.343 13.9724 17.6095 13.6427 17.6095Z" fill="white"/>
</g>
<defs>
<clipPath id="clip0_1_2489">
<rect width="28" height="28" fill="white"/>
</clipPath>
</defs>
</svg>
